<svg version="1.1" id="Layer_1" xmlns="http://www.w3.org/2000/svg" xmlns:xlink="http://www.w3.org/1999/xlink" x="0px" y="0px"
	 width="100%" viewBox="0 0 1024 1024" enable-background="new 0 0 1024 1024" xml:space="preserve">
<path fill="#FEFFFF" opacity="1.000000" stroke="none" 
	d="
M479.000000,1025.000000 
	C319.333344,1025.000000 160.166672,1025.000000 1.000000,1025.000000 
	C1.000000,683.666687 1.000000,342.333344 1.000000,1.000000 
	C342.333344,1.000000 683.666687,1.000000 1025.000000,1.000000 
	C1025.000000,342.333344 1025.000000,683.666687 1025.000000,1025.000000 
	C843.166687,1025.000000 661.333313,1025.000000 479.000000,1025.000000 
M386.819244,475.707886 
	C386.722412,475.680634 386.625549,475.653351 386.528717,475.626099 
	C386.611786,475.709778 386.691742,475.858490 386.778687,475.862671 
	C386.930115,475.870026 387.085876,475.788269 386.994507,476.446747 
	C387.351288,476.607605 387.708038,476.768494 387.466278,477.491974 
	C402.639801,499.825317 422.875031,514.478821 450.775269,519.002014 
	C457.524078,519.369263 464.272858,519.736450 471.705963,520.330383 
	C481.686859,518.194580 491.667755,516.058716 502.414459,513.900269 
	C510.584045,509.278778 518.746826,504.645233 526.930664,500.049011 
	C528.129700,499.375580 529.428528,498.879669 530.666748,499.162445 
	C530.265564,503.961639 530.388367,508.874847 529.372925,513.540344 
	C524.865234,534.249695 512.585266,549.839539 496.095551,562.431641 
	C484.784302,571.069214 472.220734,577.262939 458.379333,581.125549 
	C464.178375,581.114990 469.929443,580.896179 475.551025,579.926453 
	C504.467163,574.937927 526.435181,559.593994 542.453064,534.384766 
	C544.914429,529.350708 547.727905,524.454468 549.761902,519.253296 
	C553.685608,509.219757 556.313904,498.866882 555.416504,487.180084 
	C555.309753,486.181519 555.202942,485.182922 555.308716,483.901184 
	C555.217834,483.579895 555.126953,483.258606 555.139832,482.066498 
	C554.699768,478.721985 554.259705,475.377472 554.024170,471.356323 
	C556.712402,466.963440 559.400574,462.570557 562.631775,457.750336 
	C566.446533,450.170410 570.261353,442.590485 574.620667,434.588898 
	C581.366333,419.005096 587.069702,403.121765 588.925354,385.447174 
	C588.972351,384.315643 589.019348,383.184082 589.157227,381.376923 
	C589.184509,380.923523 589.211731,380.470154 589.714050,379.339996 
	C590.681274,360.885864 589.765625,342.768188 580.383240,326.130798 
	C581.744385,339.627045 579.590393,352.787384 575.611816,365.424164 
	C571.995667,376.909790 566.668640,387.856720 561.570251,399.458801 
	C552.719055,410.128937 543.901428,420.827301 534.969788,431.429657 
	C533.974854,432.610657 532.331909,433.245697 530.498108,433.656189 
	C522.019348,429.385895 513.540588,425.115601 504.566864,420.354980 
	C492.461731,415.560059 480.158508,411.556824 466.078156,410.781921 
	C454.356232,411.543823 442.524170,411.560699 430.942841,413.273285 
	C418.912537,415.052307 407.968933,420.409668 397.866486,427.358917 
	C416.142365,422.864136 434.324463,422.469696 452.707214,426.636688 
	C473.188660,431.279449 491.416931,440.352783 508.251984,453.701935 
	C513.519104,459.479858 518.786194,465.257782 524.023193,471.640503 
	C524.021851,471.842346 524.020447,472.044189 523.672791,472.392212 
	C523.454163,472.545380 523.325684,472.754059 522.734985,473.240753 
	C522.091858,473.968048 521.448730,474.695343 520.195312,475.683228 
	C519.784973,476.139221 519.374634,476.595184 518.508606,477.409637 
	C518.236572,477.891632 517.964539,478.373657 517.813843,478.721252 
	C517.813843,478.721252 517.654724,478.634827 517.031921,478.856537 
	C499.718903,494.616547 479.599670,503.639191 455.100555,504.114716 
	C444.186798,504.285980 433.815155,501.816620 423.569122,498.198578 
	C410.252991,493.496307 398.918091,485.634644 387.904877,476.518188 
	C387.656219,476.290253 387.407593,476.062286 386.819244,475.707886 
M508.552307,695.245605 
	C508.442963,691.166870 508.333618,687.088074 508.530090,682.122925 
	C508.381439,672.986145 508.642853,663.818970 507.967987,654.721191 
	C507.302368,645.747925 502.696533,638.841797 493.892853,635.930298 
	C480.802002,631.601013 467.995087,633.039612 455.770874,639.342957 
	C454.778076,639.854919 453.454529,641.293274 453.572571,642.116394 
	C454.049072,645.438232 455.030670,648.687622 455.891663,652.235046 
	C464.220459,646.525024 472.730438,644.164429 482.011932,645.375122 
	C492.407898,646.731323 496.744751,653.337097 494.224640,664.254089 
	C490.901276,664.254089 487.440399,664.254089 483.083588,664.087585 
	C478.727142,664.422363 474.370667,664.757141 469.272034,665.000610 
	C467.863800,665.392334 466.455536,665.784058 464.311737,666.182007 
	C463.071289,666.641541 461.801758,667.035522 460.595123,667.571167 
	C452.149872,671.320312 447.765778,678.090027 448.193665,686.658569 
	C448.633942,695.474792 453.675201,702.762634 462.404388,704.964111 
	C467.678436,706.294128 473.442352,705.681885 479.773682,706.023132 
	C485.241547,703.409058 490.709412,700.794922 496.281982,698.130737 
	C496.475861,699.550720 496.818726,702.061401 497.174713,704.668335 
	C501.013947,704.668335 504.707855,704.668335 508.838196,704.668335 
	C508.646210,701.541687 508.476776,698.782104 508.552307,695.245605 
M473.316467,356.104919 
	C460.428040,364.126862 450.440155,374.944153 442.508820,387.808838 
	C452.773499,378.000427 464.553162,370.528717 477.861755,364.110931 
	C487.557129,361.710114 497.252502,359.309296 507.888916,356.983582 
	C522.916504,356.202026 537.719482,357.527679 552.925171,361.879395 
	C557.867615,364.046204 562.810120,366.213043 567.954529,368.468414 
	C568.481934,367.212769 568.876648,366.499237 569.086182,365.734924 
	C569.963074,362.537170 570.898438,359.349030 571.602905,356.111786 
	C573.148254,349.010590 572.806580,348.503326 565.957458,346.325592 
	C545.318909,339.763245 524.452026,337.721405 502.409332,343.102386 
	C498.939148,344.401672 495.468964,345.700958 491.249023,347.056885 
	C485.495544,350.018463 479.742096,352.980042 473.316467,356.104919 
M778.989990,666.236328 
	C776.337219,657.162659 773.788330,648.055969 770.931519,639.046997 
	C770.442688,637.505371 768.781250,635.454163 767.414917,635.244324 
	C763.894836,634.703796 760.236511,635.063416 755.821106,635.063416 
	C760.857361,649.902405 765.640442,663.995483 770.612183,678.886780 
	C773.169434,686.789673 775.625305,694.728455 778.397766,702.555115 
	C778.795166,703.677063 780.626648,704.694702 781.962646,704.984009 
	C783.871460,705.397339 785.951843,704.933044 787.929321,705.134338 
	C790.932495,705.440063 792.467957,704.310242 793.198914,701.310059 
	C794.439758,696.217102 796.042969,691.212402 797.896301,685.595886 
	C801.103027,675.564087 804.309753,665.532349 807.863220,654.416016 
	C808.854187,656.982178 809.555359,658.578308 810.094116,660.227600 
	C814.367493,673.308960 818.844116,686.331482 822.733337,699.526794 
	C824.068726,704.057556 826.106689,705.202881 830.679626,705.337341 
	C836.127319,705.497498 838.722229,703.736755 839.985352,698.514282 
	C841.658020,691.598694 843.945374,684.831726 846.480530,677.485352 
	C850.826538,663.615479 855.172546,649.745605 859.774841,635.057922 
	C855.569885,635.057922 852.411255,634.762268 849.354736,635.192200 
	C847.983643,635.385010 846.066528,636.796692 845.675110,638.053284 
	C842.273743,648.973633 839.162781,659.984436 835.538025,671.551941 
	C834.035278,676.612183 832.532593,681.672363 830.652161,688.004333 
	C829.787598,685.344604 829.373413,684.091797 828.972778,682.834717 
	C824.328735,668.262573 819.658264,653.698730 815.072510,639.108215 
	C814.323975,636.726379 813.608643,634.485840 810.488220,635.144897 
	C807.547058,635.765991 803.400940,633.068604 801.896118,637.791138 
	C797.205750,652.510742 792.655518,667.275024 787.603943,682.582214 
	C786.948181,684.522461 786.292358,686.462708 785.533813,688.706970 
	C783.260315,681.189514 781.118103,674.106323 778.989990,666.236328 
M612.856812,456.926453 
	C613.047119,468.971893 610.835022,480.620605 606.683899,492.611481 
	C601.126587,501.750214 595.569336,510.888947 589.419983,520.326416 
	C581.415771,526.153687 573.411560,531.980957 564.686584,537.864624 
	C561.453674,539.010681 558.220825,540.156738 554.231445,541.333313 
	C552.233398,541.860596 550.204895,542.295349 548.245911,542.941101 
	C546.269531,543.592712 543.803711,543.934509 542.521729,545.313293 
	C537.149475,551.091187 532.141052,557.207275 526.783813,563.450623 
	C539.033569,563.757202 551.206848,562.310303 563.772156,558.023315 
	C579.462280,552.833862 593.409058,544.931396 604.690552,531.838867 
	C605.116089,531.217102 605.541626,530.595276 606.475037,529.754517 
	C606.633240,529.431763 606.791382,529.109070 607.441772,528.464722 
	C607.948486,527.639587 608.455200,526.814392 609.550659,525.666260 
	C615.447144,517.582520 620.295593,509.010468 622.439941,498.375610 
	C626.178650,483.107117 625.849976,467.988586 620.777649,452.310638 
	C617.010376,444.291595 613.243164,436.272583 609.475891,428.253540 
	C609.242126,428.414062 609.008423,428.574585 608.774658,428.735077 
	C610.164062,437.828033 611.553406,446.920990 612.856812,456.926453 
M503.613159,386.613037 
	C497.826721,400.023315 506.377075,412.433746 519.127258,414.541473 
	C525.282776,415.559021 532.244019,412.810059 535.780884,408.054230 
	C541.765625,402.105286 542.687439,394.966278 539.951965,387.417908 
	C537.006287,379.289764 530.452942,375.503052 522.149475,375.242462 
	C514.062805,374.988586 507.650726,378.298065 503.613159,386.613037 
M629.557495,498.603729 
	C642.341797,471.995483 643.108398,444.673981 634.291199,416.020569 
	C627.979858,394.611572 615.169067,377.887604 597.424500,363.801910 
	C596.599976,371.986694 595.793762,379.196228 595.229431,386.424652 
	C595.142334,387.540070 595.917480,388.960938 596.717041,389.867096 
	C600.662292,394.337769 604.749939,398.682800 609.017639,403.741699 
	C611.185669,407.656403 613.999084,411.353668 615.404602,415.525269 
	C620.258911,429.932220 624.844543,444.440582 629.050476,459.049103 
	C630.498108,464.077301 631.173462,469.526031 631.063110,474.758636 
	C630.892700,482.844086 629.743286,490.908844 628.831665,499.259125 
	C628.740784,499.378052 628.649963,499.496948 628.559143,499.615906 
	C628.692139,499.387726 628.825195,499.159546 629.557495,498.603729 
M552.770081,647.038269 
	C554.192749,646.608765 555.615417,646.179260 557.772766,645.831360 
	C558.501526,645.728027 559.230225,645.624695 560.778442,645.754883 
	C571.609863,646.557983 575.933960,650.819275 576.526733,661.701538 
	C576.834045,667.343567 576.759949,673.008423 576.784302,678.663330 
	C576.821289,687.269714 576.794006,695.876404 576.794006,704.592529 
	C581.491089,704.592529 585.663330,704.592529 590.053223,704.592529 
	C590.053223,689.182739 590.216553,674.213501 589.994385,659.250000 
	C589.852173,649.668701 587.304565,640.699524 577.855408,636.317322 
	C567.813477,631.660278 557.556396,631.899597 547.345947,638.458069 
	C545.231201,640.425293 543.116455,642.392517 540.647156,644.689575 
	C539.929443,641.190552 539.316589,638.202393 538.712891,635.259277 
	C534.801208,635.259277 531.366516,635.259277 527.715637,635.259277 
	C527.715637,658.532898 527.715637,681.566284 527.715637,704.633972 
	C532.259094,704.633972 536.456848,704.633972 540.959229,704.633972 
	C540.959229,692.103210 541.077087,679.981018 540.920471,667.862305 
	C540.803345,658.800415 544.007812,651.700623 552.770081,647.038269 
M722.718201,706.520203 
	C727.371826,704.895752 732.548218,704.085632 736.582275,701.496033 
	C749.314575,693.322693 752.623169,680.580872 751.788940,666.351379 
	C750.230164,639.761353 721.908875,624.268433 699.293762,638.062378 
	C685.727295,645.785339 681.901123,658.453125 682.448853,672.808716 
	C683.310913,695.401611 700.765869,709.925903 722.718201,706.520203 
M297.202118,671.905640 
	C296.205505,676.543213 296.053619,681.595215 294.026550,685.727295 
	C290.427338,693.064087 281.082672,696.128113 272.371582,693.938721 
	C265.552826,692.225037 262.209076,687.029846 262.035400,677.726379 
	C261.951569,673.235229 261.983093,668.741699 261.979950,664.249268 
	C261.973206,654.647034 261.977905,645.044800 261.977905,635.216858 
	C257.261292,635.216858 253.172607,635.216858 249.284073,635.216858 
	C249.284073,652.659424 248.451050,669.967407 249.577591,687.146851 
	C250.325806,698.557068 257.978485,704.640686 269.390198,706.233398 
	C280.716461,707.814087 290.300446,704.551392 297.741791,694.692505 
	C298.226807,698.554626 298.610199,701.607422 299.028564,704.939026 
	C302.209381,704.939026 305.026978,704.841980 307.834839,704.965698 
	C310.779480,705.095459 310.633057,703.416687 310.433990,701.006226 
	C310.335083,700.536621 310.236145,700.066956 310.367218,698.735229 
	C310.269745,688.163513 310.172302,677.591797 310.353729,666.258972 
	C310.353729,655.900513 310.353729,645.541992 310.353729,635.363953 
	C305.484497,635.363953 301.434875,635.363953 297.392792,635.363953 
	C297.392792,647.515320 297.392792,659.270935 297.202118,671.905640 
M667.816650,609.168579 
	C666.443359,608.449097 665.130005,607.283630 663.686035,607.089478 
	C658.253113,606.358948 652.787109,605.787903 647.315369,605.457336 
	C642.019470,605.137390 636.649109,604.662720 631.403564,605.183838 
	C620.562622,606.260681 613.931030,613.006653 612.495789,623.786072 
	C612.019104,627.365967 612.028748,631.010559 611.788879,635.086487 
	C608.123413,635.086487 604.688293,635.086487 600.940552,635.086487 
	C600.940552,638.977295 600.940552,642.382751 600.940552,646.357910 
	C604.731323,646.357910 608.295288,646.357910 612.358398,646.357910 
	C612.358398,666.173706 612.358398,685.425415 612.358398,704.682129 
	C616.961060,704.682129 621.039185,704.682129 625.624512,704.682129 
	C625.624512,685.116760 625.624512,665.872192 625.624512,646.034912 
	C631.866150,646.034912 637.620117,646.034912 643.422058,646.034912 
	C643.422058,642.066650 643.422058,638.715393 643.422058,634.854187 
	C637.231689,634.854187 631.484375,634.854187 625.401428,634.854187 
	C625.401428,632.851624 625.393433,631.366882 625.402710,629.882263 
	C625.467957,619.427185 629.622070,615.303528 640.232544,615.858948 
	C644.507263,616.082703 648.729919,617.299805 653.478210,618.667542 
	C653.970764,620.460571 654.887268,622.252502 654.891907,624.046814 
	C654.956238,649.162720 654.895996,674.278992 654.866577,699.395142 
	C654.864502,701.145386 654.866272,702.895569 654.866272,704.605164 
	C659.693665,704.605164 663.745605,704.605164 668.114990,704.605164 
	C668.114990,689.088806 668.168823,673.968811 668.100403,658.849365 
	C668.026672,642.557068 667.838318,626.265259 667.816650,609.168579 
M346.514557,653.595947 
	C351.817352,646.554932 359.263550,643.824585 366.602478,646.230103 
	C372.490845,648.160156 375.298920,653.303101 375.366943,662.533630 
	C375.461365,675.351562 375.480377,688.169922 375.556488,700.987976 
	C375.563965,702.248962 375.744110,703.508972 375.845032,704.780518 
	C380.176727,704.780518 384.115967,704.780518 388.294281,704.780518 
	C388.406311,703.270691 388.592010,701.971252 388.585022,700.672852 
	C388.525146,689.519470 388.313965,678.365295 388.415436,667.213684 
	C388.446838,663.764587 388.820374,660.167969 389.871887,656.908203 
	C392.531769,648.662170 400.144714,644.549438 409.297607,645.901978 
	C416.380432,646.948547 420.017242,651.617737 420.565826,660.649109 
	C420.777527,664.133667 420.692047,667.637817 420.696198,671.133179 
	C420.709381,682.259094 420.701080,693.385071 420.701080,704.602661 
	C425.296173,704.602661 429.497894,704.602661 433.775818,704.602661 
	C433.775818,688.266663 434.410645,672.273254 433.594757,656.354126 
	C432.800873,640.864319 423.002716,632.638977 408.442780,633.497925 
	C399.107666,634.048645 391.347107,637.451965 386.565948,645.952148 
	C386.079987,645.654297 385.699219,645.551758 385.542511,645.306274 
	C375.810638,630.057861 356.649597,629.035767 344.989288,643.112244 
	C344.539215,643.655640 343.557007,643.758240 342.923370,643.205322 
	C342.540924,640.607544 342.158508,638.009766 341.767029,635.350464 
	C337.734375,635.350464 334.035248,635.350464 330.514404,635.350464 
	C330.514404,658.728455 330.514404,681.724792 330.514404,704.644409 
	C335.021637,704.644409 339.106232,704.644409 343.478729,704.644409 
	C343.478729,692.421692 343.244354,680.489746 343.592163,668.574768 
	C343.734650,663.693298 345.134735,658.848572 346.514557,653.595947 
M181.850800,607.840027 
	C177.652939,607.454834 173.455078,607.069641 168.893402,606.651001 
	C168.893402,639.720276 168.893402,672.118347 168.893402,704.497681 
	C173.389999,704.497681 177.598648,704.497681 181.964539,704.497681 
	C181.964539,692.111450 181.922958,680.129028 181.996872,668.147278 
	C182.013199,665.502441 182.140732,662.791870 182.728073,660.228638 
	C185.060089,650.051453 193.475769,644.609619 204.588150,645.874634 
	C213.074097,646.840576 217.200073,652.202209 217.393433,663.067322 
	C217.615570,675.550781 217.586243,688.038635 217.693161,700.524353 
	C217.705215,701.932495 217.892075,703.339172 217.978912,704.494263 
	C222.547516,704.494263 226.606461,704.494263 230.914932,704.494263 
	C230.914932,696.919189 231.017960,689.767700 230.889725,682.620361 
	C230.716782,672.980164 231.122635,663.246277 229.905518,653.728394 
	C228.273758,640.968018 219.929626,634.217651 207.075745,633.637390 
	C197.357529,633.198730 188.912354,636.023254 181.986450,645.090942 
	C181.986450,631.993896 181.986450,620.388794 181.850800,607.840027 
M482.016846,532.604492 
	C478.522827,530.731323 475.165619,527.653381 471.506042,527.237854 
	C464.063202,526.392700 456.457123,526.985107 449.116028,526.985107 
	C460.079803,540.090942 474.288910,550.127014 490.853394,556.924194 
	C491.683411,557.264832 493.265259,556.883728 493.965393,556.250671 
	C498.599152,552.060730 503.087463,547.709961 507.605011,543.428711 
	C498.790588,539.721252 490.735046,536.332947 482.016846,532.604492 
M431.934509,494.656586 
	C436.420959,495.686096 440.907410,496.715607 446.652618,498.033936 
	C433.002472,479.644348 427.146088,459.608856 424.827972,438.262238 
	C424.060303,438.860321 423.801666,439.280518 423.722809,439.732117 
	C420.650665,457.328552 422.736420,474.472717 428.428955,491.256805 
	C428.843658,492.479523 430.258179,493.363129 431.934509,494.656586 
M441.277069,389.396729 
	C441.277069,389.396729 441.562500,389.528412 441.562500,389.528412 
	C441.562500,389.528412 441.487671,389.183899 441.277069,389.396729 
z"/>
<path fill="#2E337A" opacity="1.000000" stroke="none" 
	d="
M181.918625,608.311890 
	C181.986450,620.388794 181.986450,631.993896 181.986450,645.090942 
	C188.912354,636.023254 197.357529,633.198730 207.075745,633.637390 
	C219.929626,634.217651 228.273758,640.968018 229.905518,653.728394 
	C231.122635,663.246277 230.716782,672.980164 230.889725,682.620361 
	C231.017960,689.767700 230.914932,696.919189 230.914932,704.494263 
	C226.606461,704.494263 222.547516,704.494263 217.978912,704.494263 
	C217.892075,703.339172 217.705215,701.932495 217.693161,700.524353 
	C217.586243,688.038635 217.615570,675.550781 217.393433,663.067322 
	C217.200073,652.202209 213.074097,646.840576 204.588150,645.874634 
	C193.475769,644.609619 185.060089,650.051453 182.728073,660.228638 
	C182.140732,662.791870 182.013199,665.502441 181.996872,668.147278 
	C181.922958,680.129028 181.964539,692.111450 181.964539,704.497681 
	C177.598648,704.497681 173.389999,704.497681 168.893402,704.497681 
	C168.893402,672.118347 168.893402,639.720276 168.893402,606.651001 
	C173.455078,607.069641 177.652939,607.454834 181.918625,608.311890 
z"/>
<path fill="#2D508F" opacity="1.000000" stroke="none" 
	d="
M342.822754,644.066223 
	C343.557007,643.758240 344.539215,643.655640 344.989288,643.112244 
	C356.649597,629.035767 375.810638,630.057861 385.542511,645.306274 
	C385.699219,645.551758 386.079987,645.654297 386.565948,645.952148 
	C391.347107,637.451965 399.107666,634.048645 408.442780,633.497925 
	C423.002716,632.638977 432.800873,640.864319 433.594757,656.354126 
	C434.410645,672.273254 433.775818,688.266663 433.775818,704.602661 
	C429.497894,704.602661 425.296173,704.602661 420.701080,704.602661 
	C420.701080,693.385071 420.709381,682.259094 420.696198,671.133179 
	C420.692047,667.637817 420.777527,664.133667 420.565826,660.649109 
	C420.017242,651.617737 416.380432,646.948547 409.297607,645.901978 
	C400.144714,644.549438 392.531769,648.662170 389.871887,656.908203 
	C388.820374,660.167969 388.446838,663.764587 388.415436,667.213684 
	C388.313965,678.365295 388.525146,689.519470 388.585022,700.672852 
	C388.592010,701.971252 388.406311,703.270691 388.294281,704.780518 
	C384.115967,704.780518 380.176727,704.780518 375.845032,704.780518 
	C375.744110,703.508972 375.563965,702.248962 375.556488,700.987976 
	C375.480377,688.169922 375.461365,675.351562 375.366943,662.533630 
	C375.298920,653.303101 372.490845,648.160156 366.602478,646.230103 
	C359.263550,643.824585 351.817352,646.554932 345.871887,653.792603 
	C340.054718,651.741882 342.387360,647.674011 342.822754,644.066223 
z"/>
<path fill="#3895BF" opacity="1.000000" stroke="none" 
	d="
M652.976318,618.064819 
	C648.729919,617.299805 644.507263,616.082703 640.232544,615.858948 
	C629.622070,615.303528 625.467957,619.427185 625.402710,629.882263 
	C625.393433,631.366882 625.401428,632.851624 625.401428,634.854187 
	C631.484375,634.854187 637.231689,634.854187 643.422058,634.854187 
	C643.422058,638.715393 643.422058,642.066650 643.422058,646.034912 
	C637.620117,646.034912 631.866150,646.034912 625.624512,646.034912 
	C625.624512,665.872192 625.624512,685.116760 625.624512,704.682129 
	C621.039185,704.682129 616.961060,704.682129 612.358398,704.682129 
	C612.358398,685.425415 612.358398,666.173706 612.358398,646.357910 
	C608.295288,646.357910 604.731323,646.357910 600.940552,646.357910 
	C600.940552,642.382751 600.940552,638.977295 600.940552,635.086487 
	C604.688293,635.086487 608.123413,635.086487 611.788879,635.086487 
	C612.028748,631.010559 612.019104,627.365967 612.495789,623.786072 
	C613.931030,613.006653 620.562622,606.260681 631.403564,605.183838 
	C636.649109,604.662720 642.019470,605.137390 647.315369,605.457336 
	C652.787109,605.787903 658.253113,606.358948 663.686035,607.089478 
	C665.130005,607.283630 666.443359,608.449097 667.356689,609.574463 
	C664.570374,610.473083 662.244080,610.965698 660.912048,611.247803 
	C661.470764,614.190247 661.795715,615.901855 662.120728,617.613525 
	C660.529541,617.375000 658.928040,616.898315 657.350281,616.967285 
	C655.879089,617.031494 654.433289,617.675842 652.976318,618.064819 
z"/>
<path fill="#2E337A" opacity="1.000000" stroke="none" 
	d="
M310.144348,701.418152 
	C310.633057,703.416687 310.779480,705.095459 307.834839,704.965698 
	C305.026978,704.841980 302.209381,704.939026 299.028564,704.939026 
	C298.610199,701.607422 298.226807,698.554626 297.741791,694.692505 
	C290.300446,704.551392 280.716461,707.814087 269.390198,706.233398 
	C257.978485,704.640686 250.325806,698.557068 249.577591,687.146851 
	C248.451050,669.967407 249.284073,652.659424 249.284073,635.216858 
	C253.172607,635.216858 257.261292,635.216858 261.977905,635.216858 
	C261.977905,645.044800 261.973206,654.647034 261.979950,664.249268 
	C261.983093,668.741699 261.951569,673.235229 262.035400,677.726379 
	C262.209076,687.029846 265.552826,692.225037 272.371582,693.938721 
	C281.082672,696.128113 290.427338,693.064087 294.026550,685.727295 
	C296.053619,681.595215 296.205505,676.543213 297.671906,671.461060 
	C302.119415,669.684326 306.097107,668.352234 310.074829,667.020081 
	C310.172302,677.591797 310.269745,688.163513 310.222626,699.622559 
	C310.100159,700.812683 310.122253,701.115417 310.144348,701.418152 
z"/>
<path fill="#2C4483" opacity="1.000000" stroke="none" 
	d="
M553.819641,472.032959 
	C554.259705,475.377472 554.699768,478.721985 555.064270,482.815491 
	C555.024536,483.771149 555.060303,483.977753 555.096130,484.184357 
	C555.202942,485.182922 555.309753,486.181519 555.013184,487.750519 
	C553.636719,490.759674 552.763977,493.244293 551.672974,495.629059 
	C547.292297,505.204407 541.902222,514.111877 534.135986,521.382263 
	C532.174988,523.218079 531.173462,524.931335 533.708557,527.147095 
	C536.531799,529.614746 539.207947,532.250671 541.948120,534.813354 
	C526.435181,559.593994 504.467163,574.937927 475.551025,579.926453 
	C469.929443,580.896179 464.178375,581.114990 458.379333,581.125549 
	C472.220734,577.262939 484.784302,571.069214 496.095551,562.431641 
	C512.585266,549.839539 524.865234,534.249695 529.372925,513.540344 
	C530.388367,508.874847 530.265564,503.961639 530.790039,498.383789 
	C533.309753,495.089569 535.706238,492.573975 538.363037,489.854645 
	C542.484680,484.813385 546.345947,479.975861 550.505371,475.063599 
	C551.808899,474.003571 552.814270,473.018280 553.819641,472.032959 
z"/>
<path fill="#73C5BC" opacity="1.000000" stroke="none" 
	d="
M788.050964,682.021973 
	C792.655518,667.275024 797.205750,652.510742 801.896118,637.791138 
	C803.400940,633.068604 807.547058,635.765991 810.488220,635.144897 
	C813.608643,634.485840 814.323975,636.726379 815.072510,639.108215 
	C819.658264,653.698730 824.328735,668.262573 828.972778,682.834717 
	C829.373413,684.091797 829.787598,685.344604 830.652161,688.004333 
	C832.532593,681.672363 834.035278,676.612183 836.047302,671.519043 
	C836.834167,673.072388 837.111755,674.658630 837.484558,676.788757 
	C840.248535,677.183655 843.108521,677.592285 845.968567,678.000916 
	C843.945374,684.831726 841.658020,691.598694 839.985352,698.514282 
	C838.722229,703.736755 836.127319,705.497498 830.679626,705.337341 
	C826.106689,705.202881 824.068726,704.057556 822.733337,699.526794 
	C818.844116,686.331482 814.367493,673.308960 810.094116,660.227600 
	C809.555359,658.578308 808.854187,656.982178 807.863220,654.416016 
	C804.309753,665.532349 801.103027,675.564087 797.331970,685.743347 
	C793.862061,684.601196 790.956482,683.311584 788.050964,682.021973 
z"/>
<path fill="#5DB7C0" opacity="1.000000" stroke="none" 
	d="
M699.979004,637.941223 
	C721.908875,624.268433 750.230164,639.761353 751.788940,666.351379 
	C752.623169,680.580872 749.314575,693.322693 736.582275,701.496033 
	C732.548218,704.085632 727.371826,704.895752 722.468262,706.126465 
	C723.737793,703.769348 725.257141,701.805969 726.776550,699.842651 
	C724.601990,699.414246 722.206421,699.415955 720.311707,698.442627 
	C718.199158,697.357422 713.963135,699.931396 714.437988,694.961304 
	C717.194824,694.779663 719.579407,694.949097 721.820923,694.461243 
	C730.999878,692.463440 736.929565,685.266418 737.929993,675.228577 
	C739.330444,661.177429 735.278748,651.165100 726.403687,647.201050 
	C719.001953,643.895081 711.828308,644.750427 704.916992,648.517944 
	C702.871887,644.941101 699.492615,642.367065 699.979004,637.941223 
z"/>
<path fill="#3282B1" opacity="1.000000" stroke="none" 
	d="
M507.935638,453.123566 
	C491.416931,440.352783 473.188660,431.279449 452.707214,426.636688 
	C434.324463,422.469696 416.142365,422.864136 397.866486,427.358917 
	C407.968933,420.409668 418.912537,415.052307 430.942841,413.273285 
	C442.524170,411.560699 454.356232,411.543823 466.540710,411.295685 
	C466.373016,414.654755 466.210632,417.722412 464.991608,420.287994 
	C463.533478,423.356659 464.298401,424.267212 467.290039,425.080322 
	C477.740082,427.920563 488.128113,430.989075 498.818665,434.234192 
	C504.724701,437.465057 510.351807,440.432587 516.098267,443.605835 
	C516.537903,444.167297 516.858154,444.523102 516.867676,445.032959 
	C513.683167,447.832520 510.809418,450.478058 507.935638,453.123566 
z"/>
<path fill="#3282B1" opacity="1.000000" stroke="none" 
	d="
M547.956604,638.235901 
	C557.556396,631.899597 567.813477,631.660278 577.855408,636.317322 
	C587.304565,640.699524 589.852173,649.668701 589.994385,659.250000 
	C590.216553,674.213501 590.053223,689.182739 590.053223,704.592529 
	C585.663330,704.592529 581.491089,704.592529 576.794006,704.592529 
	C576.794006,695.876404 576.821289,687.269714 576.784302,678.663330 
	C576.759949,673.008423 576.834045,667.343567 576.526733,661.701538 
	C575.933960,650.819275 571.609863,646.557983 560.389160,645.275085 
	C560.264160,642.973999 560.528381,641.152710 560.792603,639.331421 
	C560.020508,639.190308 559.248474,639.049194 558.476379,638.908020 
	C557.996948,641.188599 557.517517,643.469177 557.038086,645.749756 
	C555.615417,646.179260 554.192749,646.608765 552.252686,646.742310 
	C550.475708,643.709534 549.216187,640.972717 547.956604,638.235901 
z"/>
<path fill="#44A0C2" opacity="1.000000" stroke="none" 
	d="
M653.227295,618.366211 
	C654.433289,617.675842 655.879089,617.031494 657.350281,616.967285 
	C658.928040,616.898315 660.529541,617.375000 662.120728,617.613525 
	C661.795715,615.901855 661.470764,614.190247 660.912048,611.247803 
	C662.244080,610.965698 664.570374,610.473083 667.298340,609.976807 
	C667.838318,626.265259 668.026672,642.557068 668.100403,658.849365 
	C668.168823,673.968811 668.114990,689.088806 668.114990,704.605164 
	C663.745605,704.605164 659.693665,704.605164 654.866272,704.605164 
	C654.866272,702.895569 654.864502,701.145386 654.866577,699.395142 
	C654.895996,674.278992 654.956238,649.162720 654.891907,624.046814 
	C654.887268,622.252502 653.970764,620.460571 653.227295,618.366211 
z"/>
<path fill="#2F619F" opacity="1.000000" stroke="none" 
	d="
M483.979523,664.254089 
	C487.440399,664.254089 490.901276,664.254089 494.224640,664.254089 
	C496.744751,653.337097 492.407898,646.731323 482.011932,645.375122 
	C472.730438,644.164429 464.220459,646.525024 455.891663,652.235046 
	C455.030670,648.687622 454.049072,645.438232 453.572571,642.116394 
	C453.454529,641.293274 454.778076,639.854919 455.770874,639.342957 
	C467.995087,633.039612 480.802002,631.601013 493.892853,635.930298 
	C502.696533,638.841797 507.302368,645.747925 507.967987,654.721191 
	C508.642853,663.818970 508.381439,672.986145 508.015198,682.565918 
	C503.432281,682.347046 499.364197,681.685059 495.208221,680.579834 
	C495.120300,678.020203 495.120300,675.903809 495.120300,673.480469 
	C491.835510,673.306641 488.913391,673.152039 485.993591,672.589111 
	C485.323792,669.538574 484.651672,666.896362 483.979523,664.254089 
z"/>
<path fill="#56AFB7" opacity="1.000000" stroke="none" 
	d="
M634.413086,416.790894 
	C643.108398,444.673981 642.341797,471.995483 629.266968,498.785034 
	C628.976379,498.966309 629.009094,498.982391 629.009094,498.982391 
	C629.743286,490.908844 630.892700,482.844086 631.063110,474.758636 
	C631.173462,469.526031 630.498108,464.077301 629.050476,459.049103 
	C624.844543,444.440582 620.258911,429.932220 615.404602,415.525269 
	C613.999084,411.353668 611.185669,407.656403 609.257446,403.240173 
	C615.288879,399.266327 625.514709,403.844269 628.128113,410.374695 
	C629.155090,412.940857 632.256409,414.676849 634.413086,416.790894 
z"/>
<path fill="#44A0C2" opacity="1.000000" stroke="none" 
	d="
M699.636353,638.001831 
	C699.492615,642.367065 702.871887,644.941101 704.726379,648.797729 
	C689.406982,665.150635 694.346863,689.037964 714.000000,695.010071 
	C713.963135,699.931396 718.199158,697.357422 720.311707,698.442627 
	C722.206421,699.415955 724.601990,699.414246 726.776550,699.842651 
	C725.257141,701.805969 723.737793,703.769348 722.105225,706.001343 
	C700.765869,709.925903 683.310913,695.401611 682.448853,672.808716 
	C681.901123,658.453125 685.727295,645.785339 699.636353,638.001831 
z"/>
<path fill="#2F619F" opacity="1.000000" stroke="none" 
	d="
M547.651245,638.346985 
	C549.216187,640.972717 550.475708,643.709534 551.881348,646.762756 
	C544.007812,651.700623 540.803345,658.800415 540.920471,667.862305 
	C541.077087,679.981018 540.959229,692.103210 540.959229,704.633972 
	C536.456848,704.633972 532.259094,704.633972 527.715637,704.633972 
	C527.715637,681.566284 527.715637,658.532898 527.715637,635.259277 
	C531.366516,635.259277 534.801208,635.259277 538.712891,635.259277 
	C539.316589,638.202393 539.929443,641.190552 540.647156,644.689575 
	C543.116455,642.392517 545.231201,640.425293 547.651245,638.346985 
z"/>
<path fill="#92D3CC" opacity="1.000000" stroke="none" 
	d="
M589.066345,382.052551 
	C589.019348,383.184082 588.972351,384.315643 588.379272,385.859619 
	C586.981018,388.028107 586.061401,389.755096 585.289673,391.545807 
	C583.208984,396.373779 581.191406,401.228943 578.937500,405.735382 
	C575.781494,405.223572 572.813721,404.752045 569.900085,404.978149 
	C567.880371,405.134827 565.935303,406.252716 563.964233,406.555969 
	C563.907898,403.646545 567.247314,400.226868 562.095825,399.041138 
	C566.668640,387.856720 571.995667,376.909790 575.611816,365.424164 
	C579.590393,352.787384 581.744385,339.627045 580.383240,326.130798 
	C589.765625,342.768188 590.681274,360.885864 589.208008,379.793365 
	C588.823425,380.848694 588.944885,381.450623 589.066345,382.052551 
z"/>
<path fill="#2C4483" opacity="1.000000" stroke="none" 
	d="
M342.873047,643.635742 
	C342.387360,647.674011 340.054718,651.741882 345.595947,653.988159 
	C345.134735,658.848572 343.734650,663.693298 343.592163,668.574768 
	C343.244354,680.489746 343.478729,692.421692 343.478729,704.644409 
	C339.106232,704.644409 335.021637,704.644409 330.514404,704.644409 
	C330.514404,681.724792 330.514404,658.728455 330.514404,635.350464 
	C334.035248,635.350464 337.734375,635.350464 341.767029,635.350464 
	C342.158508,638.009766 342.540924,640.607544 342.873047,643.635742 
z"/>
<path fill="#2E337A" opacity="1.000000" stroke="none" 
	d="
M482.348175,532.774597 
	C490.735046,536.332947 498.790588,539.721252 507.605011,543.428711 
	C503.087463,547.709961 498.599152,552.060730 493.965393,556.250671 
	C493.265259,556.883728 491.683411,557.264832 490.853394,556.924194 
	C474.288910,550.127014 460.079803,540.090942 449.116028,526.985107 
	C456.457123,526.985107 464.063202,526.392700 471.506042,527.237854 
	C475.165619,527.653381 478.522827,530.731323 482.348175,532.774597 
z"/>
<path fill="#2D508F" opacity="1.000000" stroke="none" 
	d="
M483.531555,664.170837 
	C484.651672,666.896362 485.323792,669.538574 485.540863,672.676147 
	C479.517212,673.800598 473.788757,673.823059 468.426788,675.236206 
	C463.449921,676.547729 461.362244,681.057373 461.834412,686.213379 
	C462.294769,691.240234 465.312073,694.076111 470.003021,694.921204 
	C473.228851,695.502380 476.586700,695.350769 479.928284,695.902588 
	C480.586151,697.600281 481.201233,698.921997 481.499969,699.563965 
	C480.508728,702.079163 479.747437,704.010742 478.986145,705.942383 
	C473.442352,705.681885 467.678436,706.294128 462.404388,704.964111 
	C453.675201,702.762634 448.633942,695.474792 448.193665,686.658569 
	C447.765778,678.090027 452.149872,671.320312 460.595123,667.571167 
	C461.801758,667.035522 463.071289,666.641541 464.934509,666.417480 
	C467.042938,666.132568 468.528564,665.612244 470.014221,665.091919 
	C474.370667,664.757141 478.727142,664.422363 483.531555,664.170837 
z"/>
<path fill="#3282B1" opacity="1.000000" stroke="none" 
	d="
M538.102661,490.058411 
	C535.706238,492.573975 533.309753,495.089569 530.797241,497.953369 
	C529.428528,498.879669 528.129700,499.375580 526.930664,500.049011 
	C518.746826,504.645233 510.584045,509.278778 501.669891,513.964661 
	C495.281311,512.871155 491.684753,509.482483 490.220184,503.740845 
	C501.416107,498.394653 509.126740,489.399750 517.277649,480.948669 
	C517.723633,480.486298 517.543457,479.420013 517.654785,478.634827 
	C517.654724,478.634827 517.813843,478.721252 518.049438,478.702820 
	C518.511475,478.139984 518.737854,477.595551 518.964294,477.051147 
	C519.374634,476.595184 519.784973,476.139221 520.566162,475.942566 
	C526.658875,480.820709 532.380798,485.439575 538.102661,490.058411 
z"/>
<path fill="#73C5BC" opacity="1.000000" stroke="none" 
	d="
M503.206726,343.148224 
	C524.452026,337.721405 545.318909,339.763245 565.957458,346.325592 
	C572.806580,348.503326 573.148254,349.010590 571.602905,356.111786 
	C570.898438,359.349030 569.963074,362.537170 569.086182,365.734924 
	C568.876648,366.499237 568.481934,367.212769 567.954529,368.468414 
	C562.810120,366.213043 557.867615,364.046204 552.484070,361.474548 
	C543.480835,352.078217 532.316467,347.971130 520.727539,345.094727 
	C515.074463,343.691589 509.058441,343.750885 503.206726,343.148224 
z"/>
<path fill="#73C5BC" opacity="1.000000" stroke="none" 
	d="
M634.352173,416.405731 
	C632.256409,414.676849 629.155090,412.940857 628.128113,410.374695 
	C625.514709,403.844269 615.288879,399.266327 609.142334,402.905396 
	C604.749939,398.682800 600.662292,394.337769 596.717041,389.867096 
	C595.917480,388.960938 595.142334,387.540070 595.229431,386.424652 
	C595.793762,379.196228 596.599976,371.986694 597.424500,363.801910 
	C615.169067,377.887604 627.979858,394.611572 634.352173,416.405731 
z"/>
<path fill="#2C4483" opacity="1.000000" stroke="none" 
	d="
M449.986938,518.698547 
	C422.875031,514.478821 402.639801,499.825317 387.744812,477.233826 
	C388.023315,476.975708 387.982849,477.020752 387.982849,477.020752 
	C398.918091,485.634644 410.252991,493.496307 423.569122,498.198578 
	C433.815155,501.816620 444.186798,504.285980 455.486328,504.566650 
	C453.910370,509.578552 451.948639,514.138550 449.986938,518.698547 
z"/>
<path fill="#56AFB7" opacity="1.000000" stroke="none" 
	d="
M504.125122,386.039246 
	C507.650726,378.298065 514.062805,374.988586 522.149475,375.242462 
	C530.452942,375.503052 537.006287,379.289764 539.951965,387.417908 
	C542.687439,394.966278 541.765625,402.105286 535.378479,407.763458 
	C533.171509,405.964722 530.709900,404.809296 529.678284,402.886566 
	C525.626648,395.335358 517.204773,393.846741 511.208313,389.042603 
	C509.281738,387.499115 506.510132,387.010468 504.125122,386.039246 
z"/>
<path fill="#3282B1" opacity="1.000000" stroke="none" 
	d="
M606.949585,528.786377 
	C606.791382,529.109070 606.633240,529.431763 605.844910,529.872742 
	C603.876160,529.258240 602.471252,528.623840 601.211304,527.774475 
	C597.447754,525.237366 593.740967,522.616089 590.012085,520.027649 
	C595.569336,510.888947 601.126587,501.750214 607.229736,492.344727 
	C612.513428,494.374847 617.251404,496.671722 621.989319,498.968628 
	C620.295593,509.010468 615.447144,517.582520 608.993774,525.977173 
	C607.941162,527.120911 607.445374,527.953674 606.949585,528.786377 
z"/>
<path fill="#3895BF" opacity="1.000000" stroke="none" 
	d="
M498.539703,433.970856 
	C488.128113,430.989075 477.740082,427.920563 467.290039,425.080322 
	C464.298401,424.267212 463.533478,423.356659 464.991608,420.287994 
	C466.210632,417.722412 466.373016,414.654755 467.003632,411.382568 
	C480.158508,411.556824 492.461731,415.560059 504.832520,420.988831 
	C506.038788,425.913513 506.979401,430.204346 507.472717,434.401489 
	C504.196899,434.195526 501.368286,434.083191 498.539703,433.970856 
z"/>
<path fill="#2D508F" opacity="1.000000" stroke="none" 
	d="
M604.167175,532.066528 
	C593.409058,544.931396 579.462280,552.833862 563.253662,557.705261 
	C561.106262,555.372864 559.501038,553.338745 557.842834,551.348694 
	C555.397949,548.414612 553.079529,545.465149 554.987976,541.302734 
	C558.220825,540.156738 561.453674,539.010681 565.541016,537.892273 
	C573.435913,537.178589 580.511719,536.672424 587.505676,535.621643 
	C593.111023,534.779480 598.617065,533.276367 604.167175,532.066528 
z"/>
<path fill="#2D508F" opacity="1.000000" stroke="none" 
	d="
M450.381104,518.850281 
	C451.948639,514.138550 453.910370,509.578552 455.930969,504.650085 
	C479.599670,503.639191 499.718903,494.616547 517.343384,478.745667 
	C517.543457,479.420013 517.723633,480.486298 517.277649,480.948669 
	C509.126740,489.399750 501.416107,498.394653 489.897949,503.877136 
	C485.215088,506.238434 481.147064,508.388336 476.906921,510.115784 
	C469.961761,512.945251 469.914581,512.829407 471.021667,520.103699 
	C464.272858,519.736450 457.524078,519.369263 450.381104,518.850281 
z"/>
<path fill="#44A0C2" opacity="1.000000" stroke="none" 
	d="
M503.869141,386.326141 
	C506.510132,387.010468 509.281738,387.499115 511.208313,389.042603 
	C517.204773,393.846741 525.626648,395.335358 529.678284,402.886566 
	C530.709900,404.809296 533.171509,405.964722 535.033691,407.844482 
	C532.244019,412.810059 525.282776,415.559021 519.127258,414.541473 
	C506.377075,412.433746 497.826721,400.023315 503.869141,386.326141 
z"/>
<path fill="#3895BF" opacity="1.000000" stroke="none" 
	d="
M622.214600,498.672119 
	C617.251404,496.671722 612.513428,494.374847 607.419189,492.044800 
	C610.835022,480.620605 613.047119,468.971893 613.168945,456.272217 
	C615.414551,453.356140 617.425964,451.315125 620.768677,453.045288 
	C625.849976,467.988586 626.178650,483.107117 622.214600,498.672119 
z"/>
<path fill="#92D3CC" opacity="1.000000" stroke="none" 
	d="
M846.224548,677.743164 
	C843.108521,677.592285 840.248535,677.183655 837.484558,676.788757 
	C837.111755,674.658630 836.834167,673.072388 836.261047,671.227234 
	C839.162781,659.984436 842.273743,648.973633 845.675110,638.053284 
	C846.066528,636.796692 847.983643,635.385010 849.354736,635.192200 
	C852.411255,634.762268 855.569885,635.057922 859.774841,635.057922 
	C855.172546,649.745605 850.826538,663.615479 846.224548,677.743164 
z"/>
<path fill="#5DB7C0" opacity="1.000000" stroke="none" 
	d="
M787.827454,682.302124 
	C790.956482,683.311584 793.862061,684.601196 797.130798,686.030762 
	C796.042969,691.212402 794.439758,696.217102 793.198914,701.310059 
	C792.467957,704.310242 790.932495,705.440063 787.929321,705.134338 
	C785.951843,704.933044 783.871460,705.397339 781.962646,704.984009 
	C780.626648,704.694702 778.795166,703.677063 778.397766,702.555115 
	C775.625305,694.728455 773.169434,686.789673 770.920166,678.439331 
	C773.810730,674.335571 776.393311,670.679321 778.975952,667.023071 
	C781.118103,674.106323 783.260315,681.189514 785.533813,688.706970 
	C786.292358,686.462708 786.948181,684.522461 787.827454,682.302124 
z"/>
<path fill="#73C5BC" opacity="1.000000" stroke="none" 
	d="
M778.982971,666.629700 
	C776.393311,670.679321 773.810730,674.335571 770.825867,678.040283 
	C765.640442,663.995483 760.857361,649.902405 755.821106,635.063416 
	C760.236511,635.063416 763.894836,634.703796 767.414917,635.244324 
	C768.781250,635.454163 770.442688,637.505371 770.931519,639.046997 
	C773.788330,648.055969 776.337219,657.162659 778.982971,666.629700 
z"/>
<path fill="#2D508F" opacity="1.000000" stroke="none" 
	d="
M431.571198,494.530518 
	C430.258179,493.363129 428.843658,492.479523 428.428955,491.256805 
	C422.736420,474.472717 420.650665,457.328552 423.722809,439.732117 
	C423.801666,439.280518 424.060303,438.860321 424.827972,438.262238 
	C427.146088,459.608856 433.002472,479.644348 446.652618,498.033936 
	C440.907410,496.715607 436.420959,495.686096 431.571198,494.530518 
z"/>
<path fill="#BAE3DC" opacity="1.000000" stroke="none" 
	d="
M502.808044,343.125305 
	C509.058441,343.750885 515.074463,343.691589 520.727539,345.094727 
	C532.316467,347.971130 543.480835,352.078217 552.130615,361.388885 
	C537.719482,357.527679 522.916504,356.202026 507.430664,356.578674 
	C505.898193,354.920746 505.060120,353.230286 503.704529,352.498322 
	C499.917206,350.453369 495.915741,348.805084 491.998779,347.000244 
	C495.468964,345.700958 498.939148,344.401672 502.808044,343.125305 
z"/>
<path fill="#44A0C2" opacity="1.000000" stroke="none" 
	d="
M553.921875,471.694641 
	C552.814270,473.018280 551.808899,474.003571 550.181641,474.903198 
	C547.180420,472.313354 544.960693,469.627625 542.377258,467.355469 
	C539.719238,465.017731 536.706482,463.083374 533.922852,460.628143 
	C534.373779,459.183411 534.750793,458.083038 535.411987,456.825684 
	C538.131592,453.128357 540.567139,449.588043 543.252075,445.933960 
	C543.972778,445.549042 544.444214,445.277924 545.244507,445.136841 
	C547.769836,446.375061 550.258789,447.132263 552.100098,448.666718 
	C555.624268,451.603546 558.780090,454.982300 562.088745,458.177673 
	C559.400574,462.570557 556.712402,466.963440 553.921875,471.694641 
z"/>
<path fill="#5DB7C0" opacity="1.000000" stroke="none" 
	d="
M562.360229,457.963989 
	C558.780090,454.982300 555.624268,451.603546 552.100098,448.666718 
	C550.258789,447.132263 547.769836,446.375061 545.309937,444.784454 
	C547.029602,440.529449 549.012695,436.756775 550.999084,432.991882 
	C551.002441,432.999634 550.986206,432.999390 551.189636,432.920593 
	C551.657227,432.690704 551.836670,432.470612 552.036255,431.951569 
	C552.387573,431.496521 552.634155,431.271393 553.240723,430.974274 
	C556.357788,429.415588 559.114990,427.928864 561.990845,426.796631 
	C566.098450,429.770966 570.087341,432.390778 574.076172,435.010590 
	C570.261353,442.590485 566.446533,450.170410 562.360229,457.963989 
z"/>
<path fill="#2C4483" opacity="1.000000" stroke="none" 
	d="
M310.214294,666.639526 
	C306.097107,668.352234 302.119415,669.684326 297.767242,671.021545 
	C297.392792,659.270935 297.392792,647.515320 297.392792,635.363953 
	C301.434875,635.363953 305.484497,635.363953 310.353729,635.363953 
	C310.353729,645.541992 310.353729,655.900513 310.214294,666.639526 
z"/>
<path fill="#3895BF" opacity="1.000000" stroke="none" 
	d="
M533.848877,460.972473 
	C536.706482,463.083374 539.719238,465.017731 542.377258,467.355469 
	C544.960693,469.627625 547.180420,472.313354 549.883545,474.977905 
	C546.345947,479.975861 542.484680,484.813385 538.363037,489.854645 
	C532.380798,485.439575 526.658875,480.820709 520.871338,475.812256 
	C521.448730,474.695343 522.091858,473.968048 523.138672,473.006104 
	C523.705322,472.600037 523.864197,472.424896 524.018982,472.246063 
	C524.020447,472.044189 524.021851,471.842346 524.336121,471.190216 
	C527.715698,467.484100 530.782288,464.228302 533.848877,460.972473 
z"/>
<path fill="#2C4483" opacity="1.000000" stroke="none" 
	d="
M554.609741,541.318054 
	C553.079529,545.465149 555.397949,548.414612 557.842834,551.348694 
	C559.501038,553.338745 561.106262,555.372864 562.869629,557.699219 
	C551.206848,562.310303 539.033569,563.757202 526.783813,563.450623 
	C532.141052,557.207275 537.149475,551.091187 542.521729,545.313293 
	C543.803711,543.934509 546.269531,543.592712 548.245911,542.941101 
	C550.204895,542.295349 552.233398,541.860596 554.609741,541.318054 
z"/>
<path fill="#73C5BC" opacity="1.000000" stroke="none" 
	d="
M552.880737,431.046265 
	C552.634155,431.271393 552.387573,431.496521 551.817871,432.004639 
	C551.200317,432.435638 551.030823,432.672852 550.986206,432.999390 
	C550.986206,432.999390 551.002441,432.999634 550.596558,432.994629 
	C544.445007,433.992523 538.699341,434.995392 532.711182,435.862335 
	C531.975647,435.195587 531.482605,434.664764 530.989502,434.133942 
	C532.331909,433.245697 533.974854,432.610657 534.969788,431.429657 
	C543.901428,420.827301 552.719055,410.128937 561.833069,399.249969 
	C567.247314,400.226868 563.907898,403.646545 563.830994,406.892029 
	C562.471741,410.752289 561.253174,413.891388 559.885376,417.343567 
	C557.450989,422.119904 555.165894,426.583099 552.880737,431.046265 
z"/>
<path fill="#2F619F" opacity="1.000000" stroke="none" 
	d="
M542.200562,534.599060 
	C539.207947,532.250671 536.531799,529.614746 533.708557,527.147095 
	C531.173462,524.931335 532.174988,523.218079 534.135986,521.382263 
	C541.902222,514.111877 547.292297,505.204407 551.672974,495.629059 
	C552.763977,493.244293 553.636719,490.759674 554.922241,488.118469 
	C556.313904,498.866882 553.685608,509.219757 549.761902,519.253296 
	C547.727905,524.454468 544.914429,529.350708 542.200562,534.599060 
z"/>
<path fill="#44A0C2" opacity="1.000000" stroke="none" 
	d="
M530.743774,433.895081 
	C531.482605,434.664764 531.975647,435.195587 532.760498,436.205444 
	C535.034119,438.792236 537.016052,440.900024 538.757019,443.279510 
	C533.619629,443.169983 531.852905,447.426361 528.683228,449.808563 
	C527.282715,448.240906 526.165833,446.857910 525.018738,445.500427 
	C523.733643,443.979645 522.421265,442.481964 521.058716,440.620453 
	C519.666443,439.529083 518.336182,438.791443 516.676270,437.916443 
	C513.537720,436.684418 510.728851,435.589783 507.919983,434.495148 
	C506.979401,430.204346 506.038788,425.913513 505.080017,421.234009 
	C513.540588,425.115601 522.019348,429.385895 530.743774,433.895081 
z"/>
<path fill="#2F619F" opacity="1.000000" stroke="none" 
	d="
M533.922852,460.628113 
	C530.782288,464.228302 527.715698,467.484100 524.351196,470.887817 
	C518.786194,465.257782 513.519104,459.479858 508.093811,453.412750 
	C510.809418,450.478058 513.683167,447.832520 517.160400,445.066528 
	C518.154175,445.003510 518.544556,445.061005 519.133789,445.382568 
	C522.548340,447.806030 525.763977,449.965393 529.174011,452.384521 
	C531.288208,454.090424 533.208008,455.536530 535.127808,456.982605 
	C534.750793,458.083038 534.373779,459.183411 533.922852,460.628113 
z"/>
<path fill="#73C5BC" opacity="1.000000" stroke="none" 
	d="
M574.348389,434.799744 
	C570.087341,432.390778 566.098450,429.770966 562.193237,426.562988 
	C565.021851,423.321503 567.766846,420.668182 570.816467,417.930786 
	C573.796936,413.922241 576.472900,409.997772 579.148804,406.073334 
	C581.191406,401.228943 583.208984,396.373779 585.289673,391.545807 
	C586.061401,389.755096 586.981018,388.028107 588.203979,386.151978 
	C587.069702,403.121765 581.366333,419.005096 574.348389,434.799744 
z"/>
<path fill="#92D3CC" opacity="1.000000" stroke="none" 
	d="
M491.623901,347.028564 
	C495.915741,348.805084 499.917206,350.453369 503.704529,352.498322 
	C505.060120,353.230286 505.898193,354.920746 506.960144,356.541077 
	C497.252502,359.309296 487.557129,361.710114 477.404266,363.749329 
	C475.960724,360.905701 474.974670,358.423676 473.988647,355.941650 
	C479.742096,352.980042 485.495544,350.018463 491.623901,347.028564 
z"/>
<path fill="#2F619F" opacity="1.000000" stroke="none" 
	d="
M604.428833,531.952698 
	C598.617065,533.276367 593.111023,534.779480 587.505676,535.621643 
	C580.511719,536.672424 573.435913,537.178589 565.901367,537.864136 
	C573.411560,531.980957 581.415771,526.153687 589.716003,520.177002 
	C593.740967,522.616089 597.447754,525.237366 601.211304,527.774475 
	C602.471252,528.623840 603.876160,529.258240 605.590942,529.982239 
	C605.541626,530.595276 605.116089,531.217102 604.428833,531.952698 
z"/>
<path fill="#2F619F" opacity="1.000000" stroke="none" 
	d="
M471.363831,520.217041 
	C469.914581,512.829407 469.961761,512.945251 476.906921,510.115784 
	C481.147064,508.388336 485.215088,506.238434 489.682678,504.141968 
	C491.684753,509.482483 495.281311,512.871155 501.286987,513.975952 
	C491.667755,516.058716 481.686859,518.194580 471.363831,520.217041 
z"/>
<path fill="#2F619F" opacity="1.000000" stroke="none" 
	d="
M479.379913,705.982788 
	C479.747437,704.010742 480.508728,702.079163 481.499969,699.563965 
	C481.201233,698.921997 480.586151,697.600281 480.233368,695.736816 
	C484.248596,693.307129 488.001526,691.419189 491.848511,689.912598 
	C496.222900,695.558838 502.057495,696.383911 508.307373,696.022583 
	C508.476776,698.782104 508.646210,701.541687 508.838196,704.668335 
	C504.707855,704.668335 501.013947,704.668335 497.174713,704.668335 
	C496.818726,702.061401 496.475861,699.550720 496.281982,698.130737 
	C490.709412,700.794922 485.241547,703.409058 479.379913,705.982788 
M486.527313,699.314880 
	C485.979645,698.975769 485.431976,698.636597 484.884308,698.297485 
	C484.749329,698.572083 484.614380,698.846619 484.479431,699.121216 
	C485.015717,699.326538 485.552002,699.531860 486.527313,699.314880 
z"/>
<path fill="#73C5BC" opacity="1.000000" stroke="none" 
	d="
M473.652557,356.023285 
	C474.974670,358.423676 475.960724,360.905701 477.009155,363.756714 
	C464.553162,370.528717 452.773499,378.000427 442.508820,387.808838 
	C450.440155,374.944153 460.428040,364.126862 473.652557,356.023285 
z"/>
<path fill="#2D508F" opacity="1.000000" stroke="none" 
	d="
M508.429840,695.634094 
	C502.057495,696.383911 496.222900,695.558838 491.972534,689.598145 
	C493.100433,686.276001 494.198303,683.649536 495.296143,681.023071 
	C499.364197,681.685059 503.432281,682.347046 507.862305,683.009155 
	C508.333618,687.088074 508.442963,691.166870 508.429840,695.634094 
z"/>
<path fill="#5DB7C0" opacity="1.000000" stroke="none" 
	d="
M620.773193,452.677979 
	C617.425964,451.315125 615.414551,453.356140 613.211914,455.815918 
	C611.553406,446.920990 610.164062,437.828033 608.774658,428.735077 
	C609.008423,428.574585 609.242126,428.414062 609.475891,428.253540 
	C613.243164,436.272583 617.010376,444.291595 620.773193,452.677979 
z"/>
<path fill="#2F619F" opacity="1.000000" stroke="none" 
	d="
M557.405396,645.790527 
	C557.517517,643.469177 557.996948,641.188599 558.476379,638.908020 
	C559.248474,639.049194 560.020508,639.190308 560.792603,639.331421 
	C560.528381,641.152710 560.264160,642.973999 559.979492,645.158325 
	C559.230225,645.624695 558.501526,645.728027 557.405396,645.790527 
z"/>
<path fill="#2F619F" opacity="1.000000" stroke="none" 
	d="
M469.643127,665.046265 
	C468.528564,665.612244 467.042938,666.132568 465.302307,666.414368 
	C466.455536,665.784058 467.863800,665.392334 469.643127,665.046265 
z"/>
<path fill="#2F619F" opacity="1.000000" stroke="none" 
	d="
M607.195679,528.625549 
	C607.445374,527.953674 607.941162,527.120911 608.699463,526.138672 
	C608.455200,526.814392 607.948486,527.639587 607.195679,528.625549 
z"/>
<path fill="#2D508F" opacity="1.000000" stroke="none" 
	d="
M518.736450,477.230408 
	C518.737854,477.595551 518.511475,478.139984 517.988770,478.770020 
	C517.964539,478.373657 518.236572,477.891632 518.736450,477.230408 
z"/>
<path fill="#56AFB7" opacity="1.000000" stroke="none" 
	d="
M628.967285,498.948853 
	C628.825195,499.159546 628.692139,499.387726 628.559082,499.615906 
	C628.649963,499.496948 628.740784,499.378052 628.920410,499.120758 
	C629.009094,498.982391 628.976379,498.966309 628.967285,498.948853 
z"/>
<path fill="#73C5BC" opacity="1.000000" stroke="none" 
	d="
M589.111816,381.714722 
	C588.944885,381.450623 588.823425,380.848694 588.970459,380.131744 
	C589.211731,380.470154 589.184509,380.923523 589.111816,381.714722 
z"/>
<path fill="#2F619F" opacity="1.000000" stroke="none" 
	d="
M555.202393,484.042786 
	C555.060303,483.977753 555.024536,483.771149 555.012390,483.250916 
	C555.126953,483.258606 555.217834,483.579895 555.202393,484.042786 
z"/>
<path fill="#2C4483" opacity="1.000000" stroke="none" 
	d="
M387.158936,475.834351 
	C387.407593,476.062286 387.656219,476.290253 387.943848,476.769470 
	C387.982849,477.020752 388.023315,476.975708 388.044067,476.952545 
	C387.708038,476.768494 387.351288,476.607605 387.095886,476.116943 
	C387.197235,475.787170 387.158936,475.834351 387.158936,475.834351 
z"/>
<path fill="#2C4483" opacity="1.000000" stroke="none" 
	d="
M387.218536,475.765503 
	C387.085876,475.788269 386.930115,475.870026 386.778687,475.862671 
	C386.691742,475.858490 386.611786,475.709778 386.528717,475.626099 
	C386.625549,475.653351 386.722412,475.680634 386.989075,475.771118 
	C387.158936,475.834351 387.197235,475.787170 387.218536,475.765503 
z"/>
<path fill="#3282B1" opacity="1.000000" stroke="none" 
	d="
M523.845886,472.319153 
	C523.864197,472.424896 523.705322,472.600037 523.414917,472.894897 
	C523.325684,472.754059 523.454163,472.545380 523.845886,472.319153 
z"/>
<path fill="#73C5BC" opacity="1.000000" stroke="none" 
	d="
M441.382385,389.290314 
	C441.487671,389.183899 441.562500,389.528412 441.562500,389.528412 
	C441.562500,389.528412 441.277069,389.396729 441.382385,389.290314 
z"/>
<path fill="#2C4483" opacity="1.000000" stroke="none" 
	d="
M310.289185,701.212158 
	C310.122253,701.115417 310.100159,700.812683 310.107605,700.053589 
	C310.236145,700.066956 310.335083,700.536621 310.289185,701.212158 
z"/>
<path fill="#FEFFFF" opacity="1.000000" stroke="none" 
	d="
M714.437988,694.961304 
	C694.346863,689.037964 689.406982,665.150635 704.763428,649.143677 
	C711.828308,644.750427 719.001953,643.895081 726.403687,647.201050 
	C735.278748,651.165100 739.330444,661.177429 737.929993,675.228577 
	C736.929565,685.266418 730.999878,692.463440 721.820923,694.461243 
	C719.579407,694.949097 717.194824,694.779663 714.437988,694.961304 
z"/>
<path fill="#BAE3DC" opacity="1.000000" stroke="none" 
	d="
M507.472717,434.401489 
	C510.728851,435.589783 513.537720,436.684418 516.631470,438.296692 
	C516.603821,440.342926 516.291382,441.871521 515.978882,443.400146 
	C510.351807,440.432587 504.724701,437.465057 498.818665,434.234192 
	C501.368286,434.083191 504.196899,434.195526 507.472717,434.401489 
z"/>
<path fill="#92D3CC" opacity="1.000000" stroke="none" 
	d="
M516.098267,443.605835 
	C516.291382,441.871521 516.603821,440.342926 516.961121,438.434082 
	C518.336182,438.791443 519.666443,439.529083 520.877808,440.915405 
	C520.150879,442.748901 519.542908,443.933685 518.934937,445.118500 
	C518.544556,445.061005 518.154175,445.003510 517.471130,444.912476 
	C516.858154,444.523102 516.537903,444.167297 516.098267,443.605835 
z"/>
<path fill="#FEFFFF" opacity="1.000000" stroke="none" 
	d="
M495.208252,680.579834 
	C494.198303,683.649536 493.100433,686.276001 491.878510,689.216858 
	C488.001526,691.419189 484.248596,693.307129 480.190613,695.360901 
	C476.586700,695.350769 473.228851,695.502380 470.003021,694.921204 
	C465.312073,694.076111 462.294769,691.240234 461.834412,686.213379 
	C461.362244,681.057373 463.449921,676.547729 468.426788,675.236206 
	C473.788757,673.823059 479.517212,673.800598 485.538513,673.084473 
	C488.913391,673.152039 491.835510,673.306641 495.120300,673.480469 
	C495.120300,675.903809 495.120300,678.020203 495.208252,680.579834 
z"/>
<path fill="#BAE3DC" opacity="1.000000" stroke="none" 
	d="
M578.937500,405.735382 
	C576.472900,409.997772 573.796936,413.922241 570.356628,417.924011 
	C566.406372,417.677734 563.220459,417.354095 560.034607,417.030457 
	C561.253174,413.891388 562.471741,410.752289 563.823608,407.277161 
	C565.935303,406.252716 567.880371,405.134827 569.900085,404.978149 
	C572.813721,404.752045 575.781494,405.223572 578.937500,405.735382 
z"/>
<path fill="#3282B1" opacity="1.000000" stroke="none" 
	d="
M538.997925,443.007812 
	C537.016052,440.900024 535.034119,438.792236 533.002930,436.341370 
	C538.699341,434.995392 544.445007,433.992523 550.593262,432.986877 
	C549.012695,436.756775 547.029602,440.529449 544.981079,444.654480 
	C544.444214,445.277924 543.972778,445.549042 542.969116,445.788940 
	C541.290527,444.841064 540.144226,443.924438 538.997925,443.007812 
z"/>
<path fill="#3895BF" opacity="1.000000" stroke="none" 
	d="
M538.757019,443.279510 
	C540.144226,443.924438 541.290527,444.841064 542.719727,445.902710 
	C540.567139,449.588043 538.131592,453.128357 535.411987,456.825653 
	C533.208008,455.536530 531.288208,454.090424 529.178223,452.029846 
	C528.976562,450.945068 528.965088,450.474792 528.953613,450.004517 
	C531.852905,447.426361 533.619629,443.169983 538.757019,443.279510 
z"/>
<path fill="#FEFFFF" opacity="1.000000" stroke="none" 
	d="
M559.885376,417.343567 
	C563.220459,417.354095 566.406372,417.677734 570.052063,418.008118 
	C567.766846,420.668182 565.021851,423.321503 562.074463,426.208496 
	C559.114990,427.928864 556.357788,429.415588 553.240723,430.974304 
	C555.165894,426.583099 557.450989,422.119904 559.885376,417.343567 
z"/>
<path fill="#3282B1" opacity="1.000000" stroke="none" 
	d="
M551.189636,432.920593 
	C551.030823,432.672852 551.200317,432.435638 551.713074,432.234619 
	C551.836670,432.470612 551.657227,432.690704 551.189636,432.920593 
z"/>
<path fill="#5DB7C0" opacity="1.000000" stroke="none" 
	d="
M528.683228,449.808563 
	C528.965088,450.474792 528.976562,450.945068 528.983887,451.770050 
	C525.763977,449.965393 522.548340,447.806030 519.133789,445.382568 
	C519.542908,443.933685 520.150879,442.748901 520.939758,441.269165 
	C522.421265,442.481964 523.733643,443.979645 525.018738,445.500427 
	C526.165833,446.857910 527.282715,448.240906 528.683228,449.808563 
z"/>
<path fill="#2D508F" opacity="1.000000" stroke="none" 
	d="
M486.307800,699.526001 
	C485.552002,699.531860 485.015717,699.326538 484.479431,699.121216 
	C484.614380,698.846619 484.749329,698.572083 484.884308,698.297485 
	C485.431976,698.636597 485.979645,698.975769 486.307800,699.526001 
z"/>
</svg>